<?xml version="1.0" standalone="no"?>
<!DOCTYPE svg PUBLIC "-//W3C//DTD SVG 20010904//EN"
 "http://www.w3.org/TR/2001/REC-SVG-20010904/DTD/svg10.dtd">
<svg version="1.0" xmlns="http://www.w3.org/2000/svg"
 width="183.000000pt" height="183.000000pt" viewBox="0 0 183.000000 183.000000"
 preserveAspectRatio="xMidYMid meet">
<metadata>
Created by potrace 1.11, written by Peter Selinger 2001-2013
</metadata>
<g transform="translate(0.000000,183.000000) scale(0.100000,-0.100000)"
fill="#000000" stroke="none">
<path d="M731 1678 c-68 -9 -144 -37 -123 -45 7 -3 34 0 60 6 119 27 225 29
335 6 133 -28 247 -84 357 -179 30 -26 56 -42 58 -36 9 26 -110 121 -217 175
-134 67 -314 95 -470 73z"/>
<path d="M795 1618 c-120 -10 -162 -22 -267 -74 -249 -125 -401 -380 -393
-664 2 -86 26 -214 43 -232 4 -4 25 -3 47 2 51 11 53 12 285 54 193 36 432 71
559 82 36 3 77 8 91 10 34 6 305 5 359 -1 56 -6 61 1 61 86 0 66 0 66 26 61
25 -5 25 -4 22 59 -3 62 -4 64 -34 73 -27 8 -36 20 -63 87 -111 271 -342 440
-636 463 -11 1 -56 -2 -100 -6z"/>
<path d="M455 1579 c-22 -12 -56 -33 -75 -47 -45 -33 -152 -143 -146 -149 3
-3 -6 -15 -19 -27 -30 -26 -87 -134 -79 -148 7 -10 77 93 88 130 10 30 153
163 224 206 34 22 62 43 62 47 0 14 -12 11 -55 -12z"/>
<path d="M102 1133 c-32 -62 -49 -280 -24 -305 9 -9 12 5 13 62 0 72 7 128 27
218 9 42 0 57 -16 25z"/>
<path d="M1331 757 c-6 -8 -18 -30 -26 -51 -9 -20 -20 -34 -24 -31 -15 9 -66
-41 -68 -66 -3 -37 -55 -55 -67 -23 -3 8 -2 12 4 9 14 -9 50 18 50 37 0 10 -9
22 -20 28 -28 15 -59 -7 -66 -47 -11 -58 -38 -63 -61 -12 -10 23 -9 29 11 45
30 25 38 60 19 79 -23 24 -61 28 -115 14 -83 -23 -113 -85 -48 -102 17 -4 17
-2 7 20 -10 22 -8 28 16 49 59 51 139 17 101 -41 -9 -15 -24 -24 -33 -22 -17
3 -17 5 -5 51 5 22 4 28 -7 24 -20 -7 -37 -46 -44 -103 -7 -62 -27 -87 -51
-63 -12 12 -14 20 -5 36 14 26 2 36 -21 15 -37 -33 -15 -74 41 -75 39 -1 59
16 67 58 7 36 34 48 34 15 0 -10 9 -29 19 -42 19 -23 21 -23 48 -9 21 12 35
13 56 6 20 -7 34 -7 48 2 11 7 29 10 39 7 11 -3 28 -1 39 4 14 8 27 8 45 0 19
-9 29 -9 39 -1 7 6 23 9 35 5 12 -3 28 0 36 6 9 8 17 8 20 2 3 -5 25 -9 49 -9
38 0 43 2 45 24 2 32 19 64 33 64 7 0 8 -14 4 -39 -5 -32 -3 -41 12 -49 12 -7
24 -7 36 0 13 7 22 7 29 0 7 -7 19 -7 34 -2 39 15 28 -7 -17 -36 -39 -24 -40
-26 -24 -44 22 -24 52 -15 71 21 8 16 21 29 29 29 8 0 15 5 15 11 0 5 -5 7
-12 3 -11 -7 -10 -3 9 83 4 15 -2 25 -17 33 -35 19 -67 4 -86 -40 -26 -59 -47
-62 -38 -5 5 37 3 46 -11 51 -10 4 -25 2 -35 -4 -13 -8 -21 -7 -29 1 -13 13
-14 12 -32 -37 -20 -55 -43 -61 -35 -9 6 35 4 41 -16 50 -34 15 -64 -3 -88
-54 -21 -44 -45 -54 -45 -17 1 10 14 44 29 75 29 56 30 89 3 89 -8 0 -20 -6
-26 -13z m24 -43 c-8 -20 -15 -39 -15 -42 0 -3 -3 -3 -6 1 -8 7 18 77 28 77 5
0 1 -16 -7 -36z m81 -93 c-21 -39 -41 -41 -31 -4 9 37 26 56 37 45 6 -6 3 -22
-6 -41z m-146 11 c0 -27 -15 -52 -32 -52 -11 0 -10 38 2 61 15 28 30 23 30 -9z
m440 23 c0 -14 -32 -65 -40 -65 -13 0 -13 12 0 44 8 22 40 38 40 21z m-550
-12 c0 -5 -4 -15 -10 -23 -11 -18 -25 -7 -17 15 6 15 27 21 27 8z m500 -138
c-7 -9 -15 -13 -18 -10 -3 2 1 11 8 20 7 9 15 13 18 10 3 -2 -1 -11 -8 -20z"/>
<path d="M474 635 c-10 -15 -19 -57 -23 -102 -4 -47 -11 -78 -18 -81 -12 -3
-18 20 -14 59 1 9 -5 19 -14 22 -16 7 -17 5 -20 -34 -6 -79 -35 -104 -35 -29
0 24 -5 40 -15 44 -16 6 -17 2 -17 -39 0 -53 3 -63 18 -69 10 -4 25 1 35 10
11 10 25 13 38 9 14 -4 26 0 37 14 13 14 22 17 34 11 11 -6 24 -4 38 6 12 8
26 12 32 9 5 -3 20 0 32 7 13 6 33 11 46 9 13 -1 29 3 37 9 8 6 19 9 25 5 6
-4 19 0 28 9 11 10 22 12 32 6 8 -5 21 -5 32 1 22 12 24 31 2 22 -13 -5 -15 1
-13 38 5 59 -21 61 -36 2 -5 -23 -16 -48 -24 -55 -11 -11 -13 -6 -9 34 4 35 2
48 -9 52 -16 6 -20 -2 -27 -59 -3 -22 -5 -41 -6 -42 0 -2 -6 -3 -14 -3 -10 0
-14 11 -13 37 2 31 -2 37 -24 43 -35 10 -57 -9 -72 -61 -8 -26 -20 -45 -29
-47 -22 -4 -27 26 -9 62 22 45 31 99 19 113 -15 19 -26 16 -44 -12z m32 -50
c-4 -19 -11 -37 -17 -40 -9 -6 -9 3 7 73 9 38 17 8 10 -33z m96 -60 c-11 -39
-32 -45 -32 -8 0 31 19 58 32 45 4 -4 4 -21 0 -37z"/>
<path d="M160 561 c-62 -33 -90 -80 -64 -106 9 -8 24 -15 34 -15 18 0 18 1 2
29 -16 29 -16 31 7 55 33 35 89 45 108 21 18 -26 16 -59 -5 -78 -33 -30 -44
-21 -40 32 3 44 1 48 -14 40 -19 -10 -21 -20 -18 -111 1 -46 -2 -58 -18 -67
-27 -14 -43 4 -32 35 11 27 -1 32 -21 8 -30 -36 -12 -65 41 -66 41 -1 63 22
63 67 0 22 5 35 13 35 26 0 62 23 73 47 16 34 14 50 -9 73 -25 25 -73 25 -120
1z"/>
<path d="M1158 452 c-30 -4 -38 -26 -12 -36 8 -3 12 -2 9 3 -3 5 -1 12 5 16 5
3 10 3 11 -2 0 -4 2 -18 5 -30 2 -13 -1 -23 -8 -23 -6 0 -8 -3 -4 -7 10 -10
56 -11 56 -1 0 4 -4 8 -10 8 -5 0 -10 14 -10 30 0 17 5 30 10 30 6 0 10 -4 10
-10 0 -5 5 -10 10 -10 6 0 10 8 10 18 0 18 -18 21 -82 14z"/>
<path d="M1264 415 c0 -40 3 -45 23 -45 21 0 22 3 13 20 -7 13 -7 20 -1 20 6
0 15 -9 21 -20 6 -11 16 -17 26 -13 13 5 13 8 -2 24 -9 11 -12 19 -6 19 5 0 9
8 8 18 -2 12 -14 18 -42 20 l-40 3 0 -46z m48 20 c0 -5 -5 -11 -10 -13 -5 -1
-9 4 -9 13 0 9 4 14 9 13 5 -2 10 -8 10 -13z"/>
<path d="M1373 415 l2 -45 38 0 c30 0 37 4 37 20 0 24 -15 26 -24 3 -5 -13 -9
-14 -19 -3 -9 10 -9 14 1 17 9 4 10 8 2 18 -7 8 -7 15 -1 19 5 4 12 2 16 -4 9
-15 25 -12 25 5 0 11 -11 15 -39 15 l-39 0 1 -45z"/>
<path d="M1485 430 c-4 -16 -11 -32 -16 -35 -16 -10 -10 -25 11 -25 13 0 18 5
14 15 -4 9 0 15 10 15 9 0 16 -7 16 -15 0 -8 9 -15 20 -15 23 0 23 0 8 37 -6
15 -12 32 -12 37 -1 5 -11 11 -23 12 -17 3 -23 -3 -28 -26z m30 -10 c3 -5 1
-10 -4 -10 -6 0 -11 5 -11 10 0 6 2 10 4 10 3 0 8 -4 11 -10z"/>
<path d="M1575 443 c2 -10 4 -20 5 -23 0 -3 5 3 11 13 6 9 14 15 19 12 9 -6 2
-44 -13 -62 -7 -10 -2 -13 22 -13 17 0 31 5 31 10 0 6 -4 10 -9 10 -4 0 -6 11
-3 25 4 24 22 36 22 15 0 -5 5 -10 10 -10 6 0 10 8 10 18 0 14 -10 18 -54 20
-48 3 -54 1 -51 -15z"/>
<path d="M1062 442 c-16 -2 -22 -8 -18 -19 3 -8 6 -28 6 -43 0 -26 3 -29 30
-25 46 6 54 15 31 36 -11 10 -25 19 -31 19 -6 0 -8 5 -5 10 4 6 15 8 26 5 13
-4 19 -2 19 9 0 14 -8 15 -58 8z m38 -63 c0 -5 -4 -9 -10 -9 -5 0 -10 7 -10
16 0 8 5 12 10 9 6 -3 10 -10 10 -16z"/>
<path d="M952 432 c-19 -3 -22 -8 -16 -25 4 -12 7 -31 6 -42 -1 -14 5 -21 18
-21 15 0 18 5 14 18 -7 22 11 24 20 3 3 -8 15 -15 27 -15 19 0 20 2 8 17 -8 9
-14 28 -14 42 0 27 -12 31 -63 23z m38 -28 c0 -14 -3 -14 -15 -4 -8 7 -15 14
-15 16 0 2 7 4 15 4 8 0 15 -7 15 -16z"/>
<path d="M795 411 c-20 -4 -26 -9 -17 -14 14 -9 17 -67 3 -67 -13 0 -25 21
-26 45 0 17 -7 20 -40 19 -34 0 -40 -3 -37 -20 2 -10 4 -31 4 -45 1 -21 5 -25
25 -21 19 3 21 7 12 18 -6 8 -8 14 -5 14 4 0 2 9 -3 19 -8 15 -7 20 5 25 10 4
15 0 13 -12 -1 -9 2 -26 7 -37 8 -19 13 -20 69 -10 46 8 60 14 61 28 2 21 -14
23 -22 2 -4 -8 -10 -15 -15 -15 -5 0 -9 7 -9 15 0 8 5 15 12 15 6 0 3 7 -8 15
-18 15 -18 16 5 13 13 -2 26 3 28 10 5 13 -13 14 -62 3z"/>
<path d="M597 380 c-45 -8 -55 -16 -39 -32 7 -7 12 -20 12 -30 0 -22 45 -35
65 -18 14 12 19 91 6 89 -3 -1 -23 -5 -44 -9z m22 -32 c11 -29 3 -52 -13 -39
-15 12 -19 61 -6 61 6 0 14 -10 19 -22z"/>
<path d="M495 355 c-5 -2 -22 -6 -37 -9 -30 -7 -38 -30 -14 -39 10 -4 13 -1
10 7 -3 8 -1 17 4 20 12 7 19 -11 18 -46 -2 -29 5 -32 38 -19 15 6 16 9 5 13
-8 3 -15 18 -17 32 -2 24 1 26 19 21 16 -5 20 -3 17 6 -5 14 -25 21 -43 14z"/>
<path d="M368 322 c-13 -2 -18 -13 -18 -37 0 -18 -3 -40 -6 -48 -4 -12 0 -14
15 -10 12 3 17 11 14 19 -3 9 1 14 12 14 9 0 13 -4 10 -10 -4 -6 5 -9 19 -8
15 1 26 4 26 5 0 2 -12 20 -27 41 -18 24 -34 36 -45 34z m16 -37 c3 -8 1 -15
-4 -15 -6 0 -10 7 -10 15 0 8 2 15 4 15 2 0 6 -7 10 -15z"/>
<path d="M288 302 c-21 -4 -22 -7 -7 -33 10 -19 9 -19 -10 -9 -12 6 -21 15
-21 19 0 5 -9 7 -20 4 -18 -5 -18 -8 -6 -37 7 -17 11 -36 9 -43 -3 -7 3 -9 16
-6 24 6 25 8 11 34 -14 25 2 25 24 0 21 -23 51 -17 40 8 -3 9 -9 27 -13 41 -4
17 -12 24 -23 22z"/>
</g>
</svg>
